DataType=double
version=3
OpenSimVersion=4.4-2022-10-11-798caa840
endheader
time	ground_force_r_vx	ground_force_r_vy	ground_force_r_vz	ground_force_r_px	ground_force_r_py	ground_force_r_pz	ground_force_l_vx	ground_force_l_vy	ground_force_l_vz	ground_force_l_px	ground_force_l_py	ground_force_l_pz	ground_torque_r_x	ground_torque_r_y	ground_torque_r_z	ground_torque_l_x	ground_torque_l_y	ground_torque_l_z
3.38	-5.324922638430355	3.646604091660201	0.3222158820113298	1.194169505974436	0	-0.4480620884293053	89.66451354202653	801.3726193007519	51.16126227771467	0.7246843492119912	0	-0.5909598321110004	0	-6.587241918598608e-09	0	0	-5.126730593567075	0
3.385	-6.630519385915062	5.156770381783327	0.5704213654240309	1.199002822013475	0	-0.4485130061616552	94.10144060309374	806.9438938594649	53.01113167498592	0.7261408851203431	0	-0.5899058947885862	0	-2.092196438319149e-08	0	0	-5.590161220455656	0
3.39	-8.895580881913453	7.795555076418197	0.905926616461278	1.202644437137776	0	-0.448857972494033	97.71266809972094	810.5882754514594	53.37548318807902	0.72776002879207	0	-0.5887082096459711	0	-8.232091652793372e-08	0	0	-6.06876214476695	0
3.395	-13.37069044570894	12.89811463397801	1.085042585602985	1.205230227517117	0	-0.448980871181096	101.0031908326699	811.1145061876618	52.89600790854728	0.7295595738755793	0	-0.5873829660155726	0	-3.428833572627354e-07	0	0	-6.509182629277191	0
3.4	-19.80267272515482	21.03718054424849	0.4569365533738413	1.206836393063595	0	-0.4489467258151781	104.5652343667539	808.8638046219809	52.00919925413758	0.7314773915586146	0	-0.5859640620269108	0	-1.789772505977894e-06	0	0	-6.873866308528555	0
3.405	-15.63307328970871	31.73937794322408	-1.390883305035254	1.207369365502406	0	-0.4488811880748633	108.4556241689707	804.3760167325275	50.90867946345801	0.733476019990096	0	-0.5844795551537709	0	-2.239663918301993e-05	0	0	-7.079729437172332	0
3.41	-2.352429989756767	48.6557870505735	-2.175889712606494	1.207934175433967	0	-0.4488652807778929	112.5951752782665	797.1969556768502	49.10469293828991	0.7356027389012271	0	-0.5828931642015281	0	-9.704380979291827e-05	0	0	-7.060515413871364	0
3.415	5.716886538037232	82.28002876612659	-0.7848510462820311	1.208595743006627	0	-0.4488346534268681	116.7833164768188	786.9862461607578	47.1055564096858	0.7379231959092533	0	-0.5811105244723773	0	-0.000341785150083207	0	0	-6.802411839317827	0
3.42	7.550781551197361	132.2888614780695	2.667585103696552	1.209134984033372	0	-0.4487808375287861	120.8467150070728	773.3836973507163	44.68120658353408	0.7404828902497059	0	-0.5790716758973816	0	-0.001145082596946789	0	0	-6.343683930183971	0
3.425	5.351172622835032	183.8453844306994	5.370216803069962	1.209650952159383	0	-0.4487294828323397	124.428303225072	756.2666387426302	41.50919389503019	0.7432637748162938	0	-0.5768424842929895	0	-0.003794062971429923	0	0	-5.731454501701389	0
3.43	1.176185591056409	226.1709696824638	7.535542999552662	1.210209331778606	0	-0.4486477247818212	127.5785196364883	735.7629022697488	38.46722018424819	0.7461988800468782	0	-0.5745508273924814	0	-0.01126367409275097	0	0	-5.033460498798643	0
3.435	-3.814153262306334	257.0640343487295	9.528858830479091	1.210866855380221	0	-0.4484959249084796	130.070525492529	711.5387952090726	35.22691553596052	0.7492390080939517	0	-0.5723001944525909	0	-0.0278269977294876	0	0	-4.322459091033881	0
3.44	-10.34270097183998	278.3993864387051	10.22868966595267	1.211680865032851	0	-0.4482360996216193	131.7608711392497	683.6733956710018	31.73542604653553	0.7523231908744467	0	-0.5702159750349739	0	-0.05743792340477505	0	0	-3.673807641799378	0
3.445	-18.0441725516784	293.5386204499407	9.65346804238016	1.2127465557211	0	-0.4478035587784417	132.6064867323057	652.3094525938827	28.21389267401472	0.7553633549440949	0	-0.5684523638255771	0	-0.100460579608173	0	0	-3.115304875033303	0
3.45	-25.94262547750899	306.1598505392111	8.053395355657619	1.214137663037178	0	-0.4471530592727752	132.1567599776983	616.765960426958	24.51791879779577	0.7582914499198575	0	-0.567145281410714	0	-0.1512597995682423	0	0	-2.590359928377016	0
3.455	-33.44128265256766	319.0647797119059	5.653157593957109	1.215814701486646	0	-0.4463133727300795	130.750942555166	575.3680749164948	20.5320875877193	0.7611800172467659	0	-0.5663606826811952	0	-0.1954503505203817	0	0	-2.068318164431682	0
3.46	-40.09775161175799	333.4550334263504	2.6593912001578	1.217637084465825	0	-0.4453891098355053	129.4127840647326	528.7066757157177	16.42257241439892	0.7641253867076822	0	-0.5661820382356868	0	-0.2160422743558552	0	0	-1.597272307841765	0
3.465	-45.87472379527156	350.1638401994898	-0.7841084810311171	1.219629643549353	0	-0.4443926588138544	127.8737317112495	478.198787547495	12.18354489670176	0.7674455518533492	0	-0.5663932360781291	0	-0.2294882105163236	0	0	-1.188416853315141	0
3.47	-51.53713411945193	371.3599460183766	-4.490553835283802	1.222310434304981	0	-0.4430339548048998	123.3872464303157	422.271599290886	7.839286123286533	0.771615359824107	0	-0.5667799189206416	0	-0.2862699960603781	0	0	-0.8264934404134596	0
3.475	-57.52018077538216	400.5152107941082	-8.224766810833197	1.226378847699241	0	-0.440957066458189	115.1779784101647	356.3614676668805	4.494000773011781	0.7773515959396605	0	-0.5673713733282858	0	-0.4169634718389528	0	0	-0.5015139002919549	0
3.48	-63.65700181836817	437.9816665260067	-11.93781050065214	1.231902591237608	0	-0.438299799043924	107.0230327002338	284.6716911010982	1.164163427380106	0.7855227465303299	0	-0.5681607632731659	0	-0.6014639689370149	0	0	-0.2227954858271706	0
3.485	-70.33898155468705	479.2468705634461	-15.49784628714589	1.238320533832103	0	-0.4356272775518962	99.59838511411257	225.7308650719858	-2.138346425490379	0.7949079635864276	0	-0.5698343520328727	0	-0.8395726912196189	0	0	-0.03136948804315876	0
3.49	-77.36468942154569	517.9365773917931	-18.73617404490081	1.245004486474014	0	-0.4334204858932086	90.22566209677568	199.2993385990241	-5.372393227424018	0.797762479183592	0	-0.5710483113962309	0	-1.230595924914535	0	0	0.0007818660023737323	0
3.495	-83.7745285554911	550.1264666968942	-21.72849144145562	1.251613263528032	0	-0.4317302670494846	81.93929486222753	183.3914170079337	-6.958686775351103	0.7981578283670752	0	-0.5711030949129452	0	-1.748604103528606	0	0	4.068323124606366e-06	0
